<?xml version="1.0" encoding="utf-8"?>
<!-- Generator: Adobe Illustrator 27.5.0, SVG Export Plug-In . SVG Version: 6.00 Build 0)  -->
<svg version="1.1" xmlns="http://www.w3.org/2000/svg" xmlns:xlink="http://www.w3.org/1999/xlink" x="0px" y="0px"
	 viewBox="183 157 830 486" xml:space="preserve">
<defs>
  <pattern id="screen" patternUnits="userSpaceOnUse" x="284.558" y="194.93" width="630.924" height="395.793">
    <rect width="630.924" height="395.793" fill="#FFFFFF"/>
    <image href="/screenshots/baymax-cms-1.png" x="0" y="0" width="10000" height="395.793" preserveAspectRatio="xMinYMin meet"/>
  </pattern>
</defs>
<g id="Graphic_Elements">
	<g>
		<g>
			<path style="fill:#FFFFFF;stroke:#030303;stroke-width:2;stroke-linecap:round;stroke-linejoin:round;stroke-miterlimit:10;" d="
				M927.71,614.503H273.102V190.878c0-10.544,8.548-19.092,19.092-19.092h616.424c10.544,0,19.092,8.548,19.092,19.092V614.503z"/>
			<path style="fill:#FFFFFF;stroke:#030303;stroke-width:2;stroke-linecap:round;stroke-linejoin:round;stroke-miterlimit:10;" d="
				M932.761,614.503h-664.71V186.495c0-10.681,8.658-19.339,19.339-19.339h626.032c10.681,0,19.339,8.658,19.339,19.339V614.503z"/>
		</g>
		
		<rect x="284.558" y="194.93" style="fill:url(#screen);stroke:#030303;stroke-width:2;stroke-linecap:round;stroke-linejoin:round;stroke-miterlimit:10;" width="630.924" height="395.793"/>
		<path style="fill:#FFFFFF;stroke:#030303;stroke-width:2;stroke-linecap:round;stroke-linejoin:round;stroke-miterlimit:10;" d="
			M193.995,614.579v4.827h327.332c3.225,0,6.427,0.459,9.566,1.207c0.369,0.09,0.741,0.169,1.117,0.238v-6.271H193.995z"/>
		<path style="fill:#FFFFFF;stroke:#030303;stroke-width:2;stroke-linecap:round;stroke-linejoin:round;stroke-miterlimit:10;" d="
			M667.99,614.579v6.271c-1.394,0.259-2.812,0.393-4.237,0.393H536.247c-1.425,0-2.843-0.134-4.237-0.393v-6.271H667.99z"/>
		<path style="fill:#FFFFFF;stroke:#030303;stroke-width:2;stroke-linecap:round;stroke-linejoin:round;stroke-miterlimit:10;" d="
			M523.021,619.405c0,0,6,0.412,9,1.412h136c0,0,4-1,8-1.412h329.371c0.112,0,0.136,0.161,0.029,0.194
			c-28.36,8.779-57.879,13.245-87.569,13.245H600.021H282.189c-29.69,0-59.21-4.465-87.569-13.245
			c-0.107-0.033-0.083-0.194,0.029-0.194H523.021"/>
		<path style="fill:#FFFFFF;stroke:#030303;stroke-width:2;stroke-linecap:round;stroke-linejoin:round;stroke-miterlimit:10;" d="
			M1006.005,614.579v4.827H678.674c-3.225,0-6.427,0.459-9.566,1.207c-0.369,0.09-0.741,0.169-1.117,0.238v-6.271H1006.005z"/>
	</g>
</g>
</svg>
